FILE "Mortal Kombat 3 (E) (Track 01) [SCES-00060].bin" BINARY
  TRACK 01 MODE2/2352
    INDEX 01 00:00:00
FILE "Mortal Kombat 3 (E) (Track 02) [SCES-00060].bin" BINARY
  TRACK 02 AUDIO
    INDEX 00 00:00:00
    INDEX 01 00:02:00
FILE "Mortal Kombat 3 (E) (Track 03) [SCES-00060].bin" BINARY
  TRACK 03 AUDIO
    INDEX 00 00:00:00
    INDEX 01 00:02:00
FILE "Mortal Kombat 3 (E) (Track 04) [SCES-00060].bin" BINARY
  TRACK 04 AUDIO
    INDEX 00 00:00:00
    INDEX 01 00:02:00
FILE "Mortal Kombat 3 (E) (Track 05) [SCES-00060].bin" BINARY
  TRACK 05 AUDIO
    INDEX 00 00:00:00
    INDEX 01 00:02:00
FILE "Mortal Kombat 3 (E) (Track 06) [SCES-00060].bin" BINARY
  TRACK 06 AUDIO
    INDEX 00 00:00:00
    INDEX 01 00:02:00
FILE "Mortal Kombat 3 (E) (Track 07) [SCES-00060].bin" BINARY
  TRACK 07 AUDIO
    INDEX 00 00:00:00
    INDEX 01 00:02:00
FILE "Mortal Kombat 3 (E) (Track 08) [SCES-00060].bin" BINARY
  TRACK 08 AUDIO
    INDEX 00 00:00:00
    INDEX 01 00:02:00
FILE "Mortal Kombat 3 (E) (Track 09) [SCES-00060].bin" BINARY
  TRACK 09 AUDIO
    INDEX 00 00:00:00
    INDEX 01 00:02:00
FILE "Mortal Kombat 3 (E) (Track 10) [SCES-00060].bin" BINARY
  TRACK 10 AUDIO
    INDEX 00 00:00:00
    INDEX 01 00:02:00
FILE "Mortal Kombat 3 (E) (Track 11) [SCES-00060].bin" BINARY
  TRACK 11 AUDIO
    INDEX 00 00:00:00
    INDEX 01 00:02:00
FILE "Mortal Kombat 3 (E) (Track 12) [SCES-00060].bin" BINARY
  TRACK 12 AUDIO
    INDEX 00 00:00:00
    INDEX 01 00:02:00
FILE "Mortal Kombat 3 (E) (Track 13) [SCES-00060].bin" BINARY
  TRACK 13 AUDIO
    INDEX 00 00:00:00
    INDEX 01 00:02:00
FILE "Mortal Kombat 3 (E) (Track 14) [SCES-00060].bin" BINARY
  TRACK 14 AUDIO
    INDEX 00 00:00:00
    INDEX 01 00:02:00
FILE "Mortal Kombat 3 (E) (Track 15) [SCES-00060].bin" BINARY
  TRACK 15 AUDIO
    INDEX 00 00:00:00
    INDEX 01 00:02:00
FILE "Mortal Kombat 3 (E) (Track 16) [SCES-00060].bin" BINARY
  TRACK 16 AUDIO
    INDEX 00 00:00:00
    INDEX 01 00:02:00
FILE "Mortal Kombat 3 (E) (Track 17) [SCES-00060].bin" BINARY
  TRACK 17 AUDIO
    INDEX 00 00:00:00
    INDEX 01 00:02:00
FILE "Mortal Kombat 3 (E) (Track 18) [SCES-00060].bin" BINARY
  TRACK 18 AUDIO
    INDEX 00 00:00:00
    INDEX 01 00:02:00
FILE "Mortal Kombat 3 (E) (Track 19) [SCES-00060].bin" BINARY
  TRACK 19 AUDIO
    INDEX 00 00:00:00
    INDEX 01 00:02:00
FILE "Mortal Kombat 3 (E) (Track 20) [SCES-00060].bin" BINARY
  TRACK 20 AUDIO
    INDEX 00 00:00:00
    INDEX 01 00:02:00
FILE "Mortal Kombat 3 (E) (Track 21) [SCES-00060].bin" BINARY
  TRACK 21 AUDIO
    INDEX 00 00:00:00
    INDEX 01 00:02:00
FILE "Mortal Kombat 3 (E) (Track 22) [SCES-00060].bin" BINARY
  TRACK 22 AUDIO
    INDEX 00 00:00:00
    INDEX 01 00:02:00
FILE "Mortal Kombat 3 (E) (Track 23) [SCES-00060].bin" BINARY
  TRACK 23 AUDIO
    INDEX 00 00:00:00
    INDEX 01 00:02:00
FILE "Mortal Kombat 3 (E) (Track 24) [SCES-00060].bin" BINARY
  TRACK 24 AUDIO
    INDEX 00 00:00:00
    INDEX 01 00:02:00
FILE "Mortal Kombat 3 (E) (Track 25) [SCES-00060].bin" BINARY
  TRACK 25 AUDIO
    INDEX 00 00:00:00
    INDEX 01 00:02:00
FILE "Mortal Kombat 3 (E) (Track 26) [SCES-00060].bin" BINARY
  TRACK 26 AUDIO
    INDEX 00 00:00:00
    INDEX 01 00:02:00
FILE "Mortal Kombat 3 (E) (Track 27) [SCES-00060].bin" BINARY
  TRACK 27 AUDIO
    INDEX 00 00:00:00
    INDEX 01 00:02:00
FILE "Mortal Kombat 3 (E) (Track 28) [SCES-00060].bin" BINARY
  TRACK 28 AUDIO
    INDEX 00 00:00:00
    INDEX 01 00:02:00
FILE "Mortal Kombat 3 (E) (Track 29) [SCES-00060].bin" BINARY
  TRACK 29 AUDIO
    INDEX 00 00:00:00
    INDEX 01 00:02:00
FILE "Mortal Kombat 3 (E) (Track 30) [SCES-00060].bin" BINARY
  TRACK 30 AUDIO
    INDEX 00 00:00:00
    INDEX 01 00:02:00
FILE "Mortal Kombat 3 (E) (Track 31) [SCES-00060].bin" BINARY
  TRACK 31 AUDIO
    INDEX 00 00:00:00
    INDEX 01 00:02:00
FILE "Mortal Kombat 3 (E) (Track 32) [SCES-00060].bin" BINARY
  TRACK 32 AUDIO
    INDEX 00 00:00:00
    INDEX 01 00:02:00
FILE "Mortal Kombat 3 (E) (Track 33) [SCES-00060].bin" BINARY
  TRACK 33 AUDIO
    INDEX 00 00:00:00
    INDEX 01 00:02:00
FILE "Mortal Kombat 3 (E) (Track 34) [SCES-00060].bin" BINARY
  TRACK 34 AUDIO
    INDEX 00 00:00:00
    INDEX 01 00:02:00
FILE "Mortal Kombat 3 (E) (Track 35) [SCES-00060].bin" BINARY
  TRACK 35 AUDIO
    INDEX 00 00:00:00
    INDEX 01 00:02:00
FILE "Mortal Kombat 3 (E) (Track 36) [SCES-00060].bin" BINARY
  TRACK 36 AUDIO
    INDEX 00 00:00:00
    INDEX 01 00:02:00
FILE "Mortal Kombat 3 (E) (Track 37) [SCES-00060].bin" BINARY
  TRACK 37 AUDIO
    INDEX 00 00:00:00
    INDEX 01 00:02:00
FILE "Mortal Kombat 3 (E) (Track 38) [SCES-00060].bin" BINARY
  TRACK 38 AUDIO
    INDEX 00 00:00:00
    INDEX 01 00:02:00
FILE "Mortal Kombat 3 (E) (Track 39) [SCES-00060].bin" BINARY
  TRACK 39 AUDIO
    INDEX 00 00:00:00
    INDEX 01 00:02:00
FILE "Mortal Kombat 3 (E) (Track 40) [SCES-00060].bin" BINARY
  TRACK 40 AUDIO
    INDEX 00 00:00:00
    INDEX 01 00:02:00
FILE "Mortal Kombat 3 (E) (Track 41) [SCES-00060].bin" BINARY
  TRACK 41 AUDIO
    INDEX 00 00:00:00
    INDEX 01 00:02:00
FILE "Mortal Kombat 3 (E) (Track 42) [SCES-00060].bin" BINARY
  TRACK 42 AUDIO
    INDEX 00 00:00:00
    INDEX 01 00:02:00
FILE "Mortal Kombat 3 (E) (Track 43) [SCES-00060].bin" BINARY
  TRACK 43 AUDIO
    INDEX 00 00:00:00
    INDEX 01 00:02:00
FILE "Mortal Kombat 3 (E) (Track 44) [SCES-00060].bin" BINARY
  TRACK 44 AUDIO
    INDEX 00 00:00:00
    INDEX 01 00:02:00
FILE "Mortal Kombat 3 (E) (Track 45) [SCES-00060].bin" BINARY
  TRACK 45 AUDIO
    INDEX 00 00:00:00
    INDEX 01 00:02:00
FILE "Mortal Kombat 3 (E) (Track 46) [SCES-00060].bin" BINARY
  TRACK 46 AUDIO
    INDEX 00 00:00:00
    INDEX 01 00:02:00
FILE "Mortal Kombat 3 (E) (Track 47) [SCES-00060].bin" BINARY
  TRACK 47 AUDIO
    INDEX 00 00:00:00
    INDEX 01 00:02:00
FILE "Mortal Kombat 3 (E) (Track 48) [SCES-00060].bin" BINARY
  TRACK 48 AUDIO
    INDEX 00 00:00:00
    INDEX 01 00:02:00
FILE "Mortal Kombat 3 (E) (Track 49) [SCES-00060].bin" BINARY
  TRACK 49 AUDIO
    INDEX 00 00:00:00
    INDEX 01 00:02:00
FILE "Mortal Kombat 3 (E) (Track 50) [SCES-00060].bin" BINARY
  TRACK 50 AUDIO
    INDEX 00 00:00:00
    INDEX 01 00:02:00
FILE "Mortal Kombat 3 (E) (Track 51) [SCES-00060].bin" BINARY
  TRACK 51 AUDIO
    INDEX 00 00:00:00
    INDEX 01 00:02:00
FILE "Mortal Kombat 3 (E) (Track 52) [SCES-00060].bin" BINARY
  TRACK 52 AUDIO
    INDEX 00 00:00:00
    INDEX 01 00:02:00
FILE "Mortal Kombat 3 (E) (Track 53) [SCES-00060].bin" BINARY
  TRACK 53 AUDIO
    INDEX 00 00:00:00
    INDEX 01 00:02:00
FILE "Mortal Kombat 3 (E) (Track 54) [SCES-00060].bin" BINARY
  TRACK 54 AUDIO
    INDEX 00 00:00:00
    INDEX 01 00:02:00
FILE "Mortal Kombat 3 (E) (Track 55) [SCES-00060].bin" BINARY
  TRACK 55 AUDIO
    INDEX 00 00:00:00
    INDEX 01 00:02:00
FILE "Mortal Kombat 3 (E) (Track 56) [SCES-00060].bin" BINARY
  TRACK 56 AUDIO
    INDEX 00 00:00:00
    INDEX 01 00:02:00
FILE "Mortal Kombat 3 (E) (Track 57) [SCES-00060].bin" BINARY
  TRACK 57 AUDIO
    INDEX 00 00:00:00
    INDEX 01 00:02:00
FILE "Mortal Kombat 3 (E) (Track 58) [SCES-00060].bin" BINARY
  TRACK 58 AUDIO
    INDEX 00 00:00:00
    INDEX 01 00:02:00
FILE "Mortal Kombat 3 (E) (Track 59) [SCES-00060].bin" BINARY
  TRACK 59 AUDIO
    INDEX 00 00:00:00
    INDEX 01 00:02:00
FILE "Mortal Kombat 3 (E) (Track 60) [SCES-00060].bin" BINARY
  TRACK 60 AUDIO
    INDEX 00 00:00:00
    INDEX 01 00:02:00
FILE "Mortal Kombat 3 (E) (Track 61) [SCES-00060].bin" BINARY
  TRACK 61 AUDIO
    INDEX 00 00:00:00
    INDEX 01 00:02:00
FILE "Mortal Kombat 3 (E) (Track 62) [SCES-00060].bin" BINARY
  TRACK 62 AUDIO
    INDEX 00 00:00:00
    INDEX 01 00:02:00
